# xmcd
#
# Track frame offsets:
#	150
#	5875
#	26351
#	43147
#	49208
#	61728
#	76803
#	101483
#	112961
#	120216
#	132870
#	142701
#
# Disc length: 2042 seconds
#
# Revision: 0
# Processed by: cddbd v1.4PL0 Copyright (c) Steve Scherf et al.
# Submitted via: audiograbber 1.81.01
#
DISCID=8d07f80c
DTITLE=Tom Downey - Passing Thru
DYEAR=2002
DGENRE=Blues
TTITLE0=Hillbilly Hot Tub
TTITLE1=Mahogany
TTITLE2=B minor Blues
TTITLE3=Do Dah Ditty
TTITLE4=Feeling Fine
TTITLE5=Wheezers
TTITLE6=The Calm
TTITLE7=9 Volt Blues
TTITLE8=Solo Jazz
TTITLE9=Water In The Waders
TTITLE10=The Journey
TTITLE11=Pathfinders
EXTD=
EXTT0=
EXTT1=
EXTT2=
EXTT3=
EXTT4=
EXTT5=
EXTT6=
EXTT7=
EXTT8=
EXTT9=
EXTT10=
EXTT11=
PLAYORDER=
